<svg xmlns="http://www.w3.org/2000/svg" fill="none" viewBox="125 190 333 199">
  <mask height="200" width="333" y="190" x="125" maskUnits="userSpaceOnUse" style="mask-type:luminance" id="mask0_347_7238">
    <path fill="white" d="M125.026 190.71H457.591V389.04H125.026V190.71Z"></path>
  </mask>
  <g mask="url(#mask0_347_7238)">
    <mask height="200" width="333" y="190" x="125" maskUnits="userSpaceOnUse" style="mask-type:luminance" id="mask1_347_7238">
      <path fill="white" d="M125.026 190.71H457.591V389.04H125.026V190.71Z"></path>
    </mask>
    <g mask="url(#mask1_347_7238)">
      <path fill="#E30514" d="M278.496 296.443H311.844V302.47H285.428V327.45H310.639V333.473H285.428V366.487H278.496V296.443ZM324.198 296.443H331.129V327.45H366.588V296.443H373.517V366.487H366.588V333.473H331.129V366.487H324.2L324.198 296.443ZM390.095 296.445H397.024V366.487H390.095V296.445Z"></path>
      <mask height="71" width="45" y="296" x="413" maskUnits="userSpaceOnUse" style="mask-type:luminance" id="mask2_347_7238">
        <path fill="white" d="M413.497 296.445H457.593V366.489H413.497V296.445Z"></path>
      </mask>
      <g mask="url(#mask2_347_7238)">
        <mask height="71" width="45" y="296" x="413" maskUnits="userSpaceOnUse" style="mask-type:luminance" id="mask3_347_7238">
          <path fill="white" d="M413.497 296.445H457.593V366.489H413.497V296.445Z"></path>
        </mask>
        <g mask="url(#mask3_347_7238)">
          <path fill="#E30514" d="M420.43 327.452H427.763C435.899 327.452 445.24 324.341 445.24 314.608C445.24 303.17 437.1 302.466 427.561 302.466H420.43V327.452ZM413.497 296.445H431.577C444.034 296.445 452.167 301.764 452.167 314.608C452.167 323.641 445.24 329.657 436.598 330.765V330.965C442.226 331.667 443.431 334.679 445.64 339.392L457.591 366.487H449.958L439.811 342.806C435.798 333.775 432.781 333.473 426.153 333.473H420.43V366.487H413.497V296.445Z"></path>
        </g>
      </g>
      <path fill="url(#paint0_linear_347_7238)" d="M173.374 260.878C153.961 283.696 145.966 307.086 144.82 320.207C142.537 362.418 173.945 378.39 185.936 386.953C176.798 380.107 170.518 354.056 181.369 328.954C192.217 303.855 214.294 289.025 217.912 256.318C221.339 223.798 200.784 190.71 200.784 190.71C205.35 228.93 192.789 238.059 173.374 260.878Z"></path>
      <path fill="url(#paint1_linear_347_7238)" d="M150.532 268.103C132.535 284.083 125.026 304.99 126.172 318.682C127.311 349.866 156.625 370.404 156.625 370.404C143.3 354.431 134.926 330.092 139.113 306.512C143.3 282.935 169.187 255.552 180.989 241.479C176.801 246.045 171.089 249.849 150.532 268.103Z"></path>
      <path fill="url(#paint2_linear_347_7238)" d="M216.013 288.256C208.398 305.754 192.409 324.767 187.841 333.512C174.516 362.417 192.789 389.04 192.789 389.04C243.04 386.758 252.556 347.587 254.46 326.673C250.651 336.938 240.755 346.445 233.903 350.633C255.604 312.979 236.57 264.299 224.768 247.943C225.147 260.114 223.624 270.761 216.013 288.256Z"></path>
      <path fill="url(#paint3_linear_347_7238)" d="M196.214 343.403C183.063 364.049 194.694 384.854 194.694 384.854C214.107 381.435 221.341 371.166 225.147 363.179C219.435 366.98 215.248 369.266 208.398 370.406C224.768 349.108 225.53 324.006 224.386 304.991C217.914 323.245 206.873 326.673 196.214 343.403Z"></path>
      <path fill="url(#paint4_linear_347_7238)" d="M165.761 299.288C142.537 337.699 175.568 375.114 175.568 375.114C164.907 354.96 168.7 326.405 185.044 305.178C209.949 272.835 206.904 258.599 206.904 229.573C202.341 269.793 181.747 271.524 165.761 299.288Z"></path>
      <path fill="url(#paint5_linear_347_7238)" d="M165.069 295.658C146.591 332.097 163.153 362.934 180.281 380.637C138.046 329.74 177.846 288.022 198 259.959C225.767 221.303 216.5 194.38 216.5 194.38C222.81 241.074 181.907 262.466 165.069 295.658Z"></path>
      <path fill-opacity="0.941" fill="#66666F" d="M257.782 221.527C252.822 221.527 248.574 223.281 245.04 226.787C241.552 230.272 239.81 234.492 239.81 239.448C239.81 244.427 241.552 248.672 245.04 252.179C248.528 255.685 252.775 257.439 257.782 257.439C262.768 257.439 267.016 255.685 270.526 252.179C274.014 248.671 275.756 244.427 275.756 239.448C275.756 234.492 274.012 230.272 270.526 226.789C266.993 223.281 262.745 221.527 257.782 221.527ZM278.002 239.412C278.002 245.001 276.026 249.782 272.071 253.756C268.115 257.707 263.341 259.681 257.749 259.681C252.131 259.681 247.357 257.707 243.426 253.756C239.517 249.805 237.562 245.023 237.562 239.414C237.562 233.849 239.541 229.102 243.495 225.173C247.426 221.246 252.178 219.281 257.749 219.281C263.341 219.281 268.115 221.246 272.071 225.173C276.026 229.102 278.002 233.847 278.002 239.412ZM262.276 235.066C262.276 233.265 261.815 232.056 260.89 231.437C259.964 230.815 258.485 230.506 256.45 230.506H253.29V239.485H256.625C258.168 239.485 259.338 239.298 260.135 238.922C261.562 238.246 262.276 236.96 262.276 235.066ZM248.796 228.262H256.871C259.749 228.262 261.855 228.531 263.19 229.07C265.576 230.051 266.77 231.979 266.77 234.855C266.77 236.889 265.951 238.385 264.312 239.343C263.446 239.835 262.241 240.197 260.697 240.431C262.804 240.712 264.342 241.436 265.313 242.606C266.283 243.774 266.77 244.908 266.77 246.006V250.706H262.487C262.463 250.632 262.445 250.556 262.435 250.478C262.422 250.39 262.404 250.302 262.382 250.216L262.276 249.479V247.691C262.276 245.048 261.621 243.307 260.31 242.466C259.515 241.974 258.146 241.728 256.204 241.728H253.288V250.706H248.796V228.262Z" clip-rule="evenodd" fill-rule="evenodd"></path>
    </g>
  </g>
  <defs>
    <linearGradient gradientUnits="userSpaceOnUse" y2="207.698" x2="181.501" y1="424.262" x1="181.501" id="paint0_linear_347_7238">
      <stop stop-color="white"></stop>
      <stop stop-color="#FFDD00" offset="0.14691"></stop>
      <stop stop-color="#FFDD00" offset="0.24176"></stop>
      <stop stop-color="#FFDD00" offset="0.32395"></stop>
      <stop stop-color="#DE101A" offset="0.62088"></stop>
      <stop stop-color="#E20D18" offset="1"></stop>
    </linearGradient>
    <linearGradient gradientUnits="userSpaceOnUse" y2="228.233" x2="153.521" y1="392.517" x1="153.521" id="paint1_linear_347_7238">
      <stop stop-color="white"></stop>
      <stop stop-color="#FFDD00" offset="0.14691"></stop>
      <stop stop-color="#FFDD00" offset="0.24176"></stop>
      <stop stop-color="#FFDD00" offset="0.32395"></stop>
      <stop stop-color="#DE101A" offset="0.62088"></stop>
      <stop stop-color="#E20D18" offset="1"></stop>
    </linearGradient>
    <linearGradient gradientUnits="userSpaceOnUse" y2="197.428" x2="218.717" y1="424.261" x1="218.717" id="paint2_linear_347_7238">
      <stop stop-color="white"></stop>
      <stop stop-color="#FFDD00" offset="0.14691"></stop>
      <stop stop-color="#FFDD00" offset="0.24176"></stop>
      <stop stop-color="#FFDD00" offset="0.32395"></stop>
      <stop stop-color="#DE101A" offset="0.62088"></stop>
      <stop stop-color="#E20D18" offset="1"></stop>
    </linearGradient>
    <linearGradient gradientUnits="userSpaceOnUse" y2="282.993" x2="207.547" y1="383.958" x1="207.547" id="paint3_linear_347_7238">
      <stop stop-color="#FFFCED"></stop>
      <stop stop-color="#FFFCED" offset="0.01049"></stop>
      <stop stop-color="#FFE200" offset="0.75275"></stop>
      <stop stop-color="#FFE200" offset="0.90558"></stop>
      <stop stop-color="#EC7302" offset="1"></stop>
    </linearGradient>
    <linearGradient gradientUnits="userSpaceOnUse" y2="145.124" x2="182.252" y1="367.758" x1="182.252" id="paint4_linear_347_7238">
      <stop stop-color="white"></stop>
      <stop stop-color="#FFE200" offset="0.14691"></stop>
      <stop stop-color="#FFE200" offset="0.24176"></stop>
      <stop stop-color="#FFE200" offset="0.32395"></stop>
      <stop stop-color="#DE101A" offset="0.62088"></stop>
      <stop stop-color="#E20D18" offset="1"></stop>
    </linearGradient>
    <linearGradient gradientUnits="userSpaceOnUse" y2="218.652" x2="187.474" y1="371.786" x1="187.474" id="paint5_linear_347_7238">
      <stop stop-color="#FFFCED"></stop>
      <stop stop-color="#FFFCED" offset="0.00965"></stop>
      <stop stop-color="#FFE200" offset="0.69231"></stop>
      <stop stop-color="#F49700" offset="0.94858"></stop>
      <stop stop-color="#F49700" offset="1"></stop>
    </linearGradient>
  </defs>
</svg>
