<svg class="w-160 md:w-200 xl:w-250" version="1.1" id="OpenCRVS_Logo" xmlns="http://www.w3.org/2000/svg" xmlns:xlink="http://www.w3.org/1999/xlink" x="0px"
     y="0px" viewBox="0 0 798.9456787 150" style="enable-background:new 0 0 798.9456787 150;" xml:space="preserve">
    <g>
        <g>
            <path d="M227.8518677,28.4674606c25.7293701,0,46.6018677,19.9539185,46.6018677,46.60186
			c0,26.6464233-20.8724976,46.6018677-46.6018677,46.6018677S181.25,101.715744,181.25,75.0693207
			C181.25,48.4213791,202.1224976,28.4674606,227.8518677,28.4674606z M227.8518677,105.130661
			c15.3579712,0,28.0914307-10.369873,28.0914307-30.0613403S243.2098389,45.007988,227.8518677,45.007988
			c-15.3594971,0-28.0929565,10.369873-28.0929565,30.0613327S212.4923706,105.130661,227.8518677,105.130661z"/>
            <path d="M298.4848022,63.1232224c3.0197144-4.2007446,9.9777222-8.4014893,19.4290161-8.4014893
			c17.7215576,0,31.6360474,14.1784592,31.6360474,33.4747238s-13.9144897,33.4747314-31.6360474,33.4747314
			c-9.4512939,0-16.4093018-4.2022705-19.4290161-8.4014893v30.7159424c0,3.1524658-0.1312256,3.2836914-3.2806396,3.2836914
			h-10.3713989c-3.1509399,0-3.2821655-0.1312256-3.2821655-3.2836914V58.6600266
			c0-3.1509399,0.1312256-3.2821655,3.2821655-3.2821655h10.3713989c3.1494141,0,3.2806396,0.1312256,3.2806396,3.2821655
			V63.1232224z M332.6156616,88.1964569c0-10.5010986-7.2189331-18.1152344-17.0654297-18.1152344
			c-9.8449707,0-17.0654297,7.6141357-17.0654297,18.1152344s7.220459,18.1152344,17.0654297,18.1152344
			C325.3967285,106.3116913,332.6156616,98.6975555,332.6156616,88.1964569z"/>
            <path d="M408.0169678,100.0098114c0.7873535,0,1.3122559,0.3936768,2.3620605,1.4434814l6.0394287,6.0394287
			c2.3620605,2.3620605,2.3620605,2.4932861,0,4.5959473c-7.4829102,6.6925049-16.8029785,9.5825195-25.8605957,9.5825195
			c-18.3792114,0-35.8383179-11.9476318-35.8383179-33.0810547c0-19.6899414,15.2282715-33.8684006,33.9996338-33.8684006
			c18.7728882,0,33.9996338,14.1784592,33.9996338,33.4747238v3.9367676c0,3.1524658-0.1312256,3.2836914-3.2806396,3.2836914
			h-46.6018677c2.7557373,7.220459,9.9761963,10.8947754,17.7215576,10.8947754
			c5.1193237,0,10.5010986-1.574707,14.9642944-4.989624C406.7047119,100.4034882,407.3608398,100.0098114,408.0169678,100.0098114z
			 M404.4723511,80.9759979c-2.494812-6.5628052-8.4014893-10.8947754-15.7531738-10.8947754
			c-7.3501587,0-13.2583618,4.2007446-15.7516479,10.8947754H404.4723511z"/>
            <path d="M432.5790405,121.0150604c-3.1509399,0-3.2821655-0.1312256-3.2821655-3.2836914V58.6600266
			c0-3.1509399,0.1312256-3.2821655,3.2821655-3.2821655h10.3713989c3.1494141,0,3.2806396,0.1312256,3.2806396,3.2821655v4.4631958
			c3.5461731-5.6442261,9.58255-8.4014893,17.5903625-8.4014893c12.6052856,0,26.2557983,7.220459,26.2557983,30.8502121v32.1594238
			c0,3.1524658-0.1312256,3.2836914-3.2806396,3.2836914h-10.369873c-3.1524658,0-3.2836914-0.1312256-3.2836914-3.2836914
			V85.5719452c0-10.3713989-6.2988281-15.4907227-13.7832642-15.4907227c-6.9580078,0-13.1286926,4.4631958-13.1286926,16.1468506
			v31.5032959c0,3.1524658-0.1312256,3.2836914-3.2806396,3.2836914H432.5790405z"/>
            <path d="M570.5765381,56.297966c-1.0528564,0.6561279-1.7089844,0.9185791-2.2338867,0.9185791
			c-0.7873535,0-1.4434814-0.6561279-2.4932861-1.9699097c-5.1208496-6.6940308-13.2598877-10.2386475-22.0550537-10.2386475
			c-15.3594971,0-28.0914307,10.369873-28.0914307,30.0613327s12.7319336,30.0613403,28.0914307,30.0613403
			c8.795166,0,16.9342041-3.5461426,22.0550537-10.2386475c1.0498047-1.3153076,1.7059326-1.9714355,2.4932861-1.9714355
			c0.5249023,0,1.1810303,0.2624512,2.2338867,0.9216309l9.4512939,5.380249
			c2.7557373,1.574707,3.0181885,1.8371582,1.0498047,4.3334961c-8.5327148,11.1572266-22.0550537,18.1152344-37.2833252,18.1152344
			c-25.7293701,0-46.6003723-19.9554443-46.6003723-46.6018677c0-26.6479416,20.8710022-46.60186,46.6003723-46.60186
			c15.0970459,0,28.6193848,6.9580078,37.1520996,18.1152344c1.9683838,2.494812,1.8371582,2.7572632-0.9185791,4.3319702
			L570.5765381,56.297966z"/>
            <path d="M628.4500732,29.1235886c18.1152344,0,30.19104,12.9959106,30.19104,30.4550171
			c0,11.9460983-5.7739258,21.7925949-15.0939941,26.9119186c1.9683838,1.3122559,3.6743164,3.2806396,4.7241211,5.5114746
			l12.210083,25.9918213c1.3122559,2.8900146,1.3122559,3.0212402-1.84021,3.0212402h-12.8631592
			c-3.1494141,0-3.4118652-0.1312256-4.7271729-3.0212402l-9.8449707-21.0021973
			c-3.1494141-6.6955566-8.795166-6.8267822-16.2780762-6.8267822h-6.6955566v27.5665283
			c0,3.1524658-0.1312256,3.2836914-3.2806396,3.2836914H593.006958c-3.1524658,0-3.2836914-0.1312256-3.2836914-3.2836914
			V32.4057541c0-3.1509399,0.1312256-3.2821655,3.2836914-3.2821655H628.4500732z M608.2321777,45.6641159v27.9617233h17.5933838
			c9.7137451,0,14.3066406-6.1706543,14.3066406-14.0472336c0-7.6126099-4.5928955-13.9144897-14.3066406-13.9144897H608.2321777z"
            />
            <path d="M658.3634033,32.2745285c-1.0498047-3.0197144-1.0498047-3.1509399,2.0996094-3.1509399h13.1286621
			c3.1494141,0,3.2806396,0.1312256,4.3334961,3.1509399l21.7895508,60.7772751l21.7926025-60.7772751
			c1.0498047-3.0197144,1.1810303-3.1509399,4.3304443-3.1509399h13.1286621c3.1494141,0,3.1494141,0.1312256,2.0996094,3.1509399
			l-30.9814453,85.5880661c-1.0498047,3.0212402-1.3122559,3.1524658-4.4616699,3.1524658h-11.8164062
			c-3.1494141,0-3.4118652-0.1312256-4.4616699-3.1524658L658.3634033,32.2745285z"/>
            <path d="M744.0720215,101.0596161c0.7873535-1.7059326,1.1810303-2.3620605,1.8371582-2.3620605
			c0.5249023,0,1.1810303,0.3936768,2.3620605,1.0498047c6.0394287,3.414917,12.3413086,5.3833008,18.1182861,5.3833008
			c8.4014893,0,14.0441895-4.0710449,14.0441895-10.2386475c0-6.9580078-6.8237305-9.5825195-14.831543-12.7334595
			c-10.8978271-4.3319702-23.7609863-9.4528198-23.7609863-26.7806931c0-16.6717529,12.2070312-26.9104004,31.2408447-26.9104004
			c9.8480225,0,16.6717529,2.8884888,21.3989258,5.3817749c2.7557373,1.4450073,2.7557373,1.7074585,1.4434814,4.5944214
			l-4.3304443,9.3215942c-0.7873535,1.7059326-1.1810303,2.3620605-1.84021,2.3620605
			c-0.5249023,0-1.3122559-0.2624512-2.4932861-0.9185791c-3.9367676-2.1011353-9.3200684-4.2007446-15.0970459-4.2007446
			c-8.2702637,0-11.8133545,4.069519-11.8133545,8.795166c0,6.8267822,6.9580078,9.5825195,14.8345947,12.7334518
			c10.8947754,4.3319702,23.7609863,9.5825195,23.7609863,27.0401001c0,15.8843994-10.8978271,28.0944824-33.4747314,28.0944824
			c-9.3231201,0-17.855835-2.8900146-24.2858887-6.4331055c-2.7587891-1.4434814-2.7587891-1.8371582-1.4465332-4.7241211
			L744.0720215,101.0596161z"/>
        </g>
        <g>
            <path style="fill:#1470FF" d="M109.375,0h-0.1489563c-1.5796814,0-2.9581299,1.1752625-3.0952911,2.74897
			C104.7388,18.7205124,91.3327332,31.25,75,31.25c-16.3325577,0-29.7387848-12.5294876-31.1307526-28.50103
			C43.7320938,1.1752586,42.3536377,0,40.7739639,0H40.625C18.1884308,0,0,18.1884308,0,40.625v68.75
			C0,131.8115692,18.1884308,150,40.625,150h0.1489639c1.5796738,0,2.9581223-1.1752625,3.0952835-2.7489624
			C45.2612152,131.2795105,58.6674423,118.7501831,75,118.7501831c16.3327332,0,29.7388,12.5293274,31.1307526,28.5008392
			C106.2679138,148.8247375,107.6463623,150,109.2260437,150H109.375C131.8115692,150,150,131.8115692,150,109.375v-68.75
			C150,18.1884308,131.8115692,0,109.375,0z M75,106.25c-17.2588348,0-31.25-13.9909668-31.25-31.25
			c0-17.2588348,13.9911652-31.25,31.25-31.25c17.2590179,0,31.25,13.9911652,31.25,31.25
			C106.25,92.2590332,92.2590179,106.25,75,106.25z"/>
        </g>
    </g>
</svg>