<?xml version="1.0" encoding="UTF-8" standalone="no"?>
<!-- Generator: Adobe Illustrator 26.2.1, SVG Export Plug-In . SVG Version: 6.00 Build 0)  -->

<svg
   version="1.1"
   id="Layer_1"
   x="0px"
   y="0px"
   viewBox="0 0 170.99872 36.063"
   xml:space="preserve"
   sodipodi:docname="logo_lite.svg"
   inkscape:version="1.2.1 (9c6d41e410, 2022-07-14)"
   width="170.99872"
   height="36.063"
   xmlns:inkscape="http://www.inkscape.org/namespaces/inkscape"
   xmlns:sodipodi="http://sodipodi.sourceforge.net/DTD/sodipodi-0.dtd"
   xmlns="http://www.w3.org/2000/svg"
   xmlns:svg="http://www.w3.org/2000/svg"><defs
   id="defs390" /><sodipodi:namedview
   id="namedview388"
   pagecolor="#ffffff"
   bordercolor="#000000"
   borderopacity="0.25"
   inkscape:showpageshadow="2"
   inkscape:pageopacity="0.0"
   inkscape:pagecheckerboard="0"
   inkscape:deskcolor="#d1d1d1"
   showgrid="false"
   inkscape:zoom="4.0047608"
   inkscape:cx="79.030937"
   inkscape:cy="24.97028"
   inkscape:window-width="1920"
   inkscape:window-height="979"
   inkscape:window-x="0"
   inkscape:window-y="32"
   inkscape:window-maximized="1"
   inkscape:current-layer="Layer_1" />
<style
   type="text/css"
   id="style303">
	.st0{fill:#3264C8;}
	.st1{fill:#231F20;}
</style>








<g
   id="g1014"
   transform="scale(0.29934992)"><circle
     transform="rotate(-9.2183636)"
     class="st0"
     cx="53.021568"
     cy="46.599247"
     id="ellipse305"
     r="7.500114"
     style="stroke-width:1.00002" /><path
     class="st0"
     d="m 76.1,67.5 v 0 15 h 20 v -15 0 c 0,-7.5 -4.5,-10 -10,-10 -5.5,0 -10,2.5 -10,10 z"
     id="path307" /><path
     class="st0"
     d="m 59.8,8.7 c 26.6,0 48.5,20.3 51,46.3 h 8.8 C 117.1,24.2 91.3,0 59.8,0 28.3,0 2.6,24.2 0,55 H 8.8 C 11.3,29 33.2,8.7 59.8,8.7 Z"
     id="path309" /><path
     class="st0"
     d="M 59.8,111.3 C 33.2,111.3 11.3,91 8.8,65 H 0 c 2.5,30.8 28.3,55 59.8,55 31.5,0 57.2,-24.2 59.8,-55 h -8.8 c -2.5,26 -24.4,46.3 -51,46.3 z"
     id="path311" /><path
     class="st0"
     d="m 93.6,47.5 c 0,-4.1 -3.4,-7.5 -7.5,-7.5 -4.1,0 -7.5,3.4 -7.5,7.5 0,4.1 3.4,7.5 7.5,7.5 4.1,0 7.5,-3.4 7.5,-7.5 z"
     id="path313" /><circle
     transform="rotate(-9.2183636)"
     class="st0"
     cx="25.558336"
     cy="52.265526"
     id="ellipse315"
     r="7.500114"
     style="stroke-width:1.00002" /><path
     class="st0"
     d="m 49.8,57.5 v 15 h 20 v -15 c 0,-7.5 -4.5,-10 -10,-10 -5.5,0 -10,2.5 -10,10 z"
     id="path317" /><path
     class="st0"
     d="m 23.6,67.5 v 0 15 h 20 v -15 0 c 0,-7.5 -4.5,-10 -10,-10 -5.5,0 -10,2.5 -10,10 z"
     id="path319" /><g
     id="g335">
	<path
   class="st1"
   d="m 144.8,59.3 c 0,-5.9 1,-11.3 2.9,-16.2 2,-4.9 4.7,-9 8.1,-12.4 3.5,-3.4 7.6,-6.1 12.4,-7.9 4.8,-1.9 10,-2.8 15.8,-2.8 5.8,-0.1 11.1,0.8 15.9,2.6 4.8,1.8 9,4.4 12.5,7.8 3.5,3.4 6.2,7.5 8.2,12.4 2,4.8 2.9,10.2 2.9,16.1 0,5.8 -1,11.1 -2.9,15.8 -2,4.8 -4.7,8.8 -8.2,12.3 -3.5,3.4 -7.7,6.1 -12.5,8 -4.8,1.9 -10.1,2.9 -15.9,3 -5.7,0 -11,-0.9 -15.8,-2.8 -4.8,-1.9 -8.9,-4.5 -12.4,-7.9 -3.5,-3.4 -6.2,-7.5 -8.1,-12.2 -1.9,-4.7 -2.9,-10 -2.9,-15.8 z m 13.9,-0.8 c 0,4 0.6,7.7 1.8,11 1.2,3.4 3,6.3 5.2,8.7 2.2,2.4 4.9,4.4 8,5.8 3.1,1.4 6.6,2.1 10.4,2.1 3.8,0 7.3,-0.7 10.5,-2.1 3.1,-1.4 5.8,-3.3 8.1,-5.8 2.2,-2.4 4,-5.3 5.2,-8.7 1.2,-3.4 1.8,-7 1.8,-11 0,-3.7 -0.6,-7.2 -1.8,-10.4 -1.2,-3.2 -3,-6 -5.2,-8.4 -2.2,-2.4 -4.9,-4.3 -8.1,-5.7 -3.1,-1.4 -6.6,-2 -10.5,-2 -3.9,0 -7.3,0.7 -10.4,2 -3.1,1.4 -5.8,3.2 -8,5.7 -2.2,2.4 -4,5.2 -5.2,8.4 -1.2,3.2 -1.8,6.7 -1.8,10.4 z"
   id="path321" />
	<path
   class="st1"
   d="m 229.7,45.8 h 12 v 7.5 h 0.2 c 1.8,-3.1 4.3,-5.3 7.3,-6.7 3.1,-1.4 6.4,-2.1 10,-2.1 3.8,0 7.3,0.7 10.4,2 3.1,1.4 5.7,3.2 7.9,5.6 2.2,2.4 3.8,5.2 4.9,8.4 1.1,3.2 1.7,6.7 1.7,10.4 0,3.7 -0.6,7.2 -1.8,10.4 -1.2,3.2 -2.8,6 -5,8.4 -2.1,2.4 -4.7,4.2 -7.7,5.6 -3,1.4 -6.3,2 -9.9,2 -2.4,0 -4.5,-0.2 -6.3,-0.7 -1.8,-0.5 -3.4,-1.1 -4.8,-1.9 -1.4,-0.8 -2.6,-1.6 -3.6,-2.5 -1,-0.9 -1.8,-1.7 -2.4,-2.6 h -0.3 V 120 h -12.6 z m 41.7,25.1 c 0,-2 -0.3,-3.8 -1,-5.7 -0.7,-1.8 -1.6,-3.4 -2.9,-4.8 -1.3,-1.4 -2.8,-2.5 -4.7,-3.4 -1.8,-0.8 -3.9,-1.3 -6.2,-1.3 -2.3,0 -4.4,0.4 -6.2,1.3 -1.8,0.8 -3.4,2 -4.7,3.4 -1.3,1.4 -2.3,3 -2.9,4.8 -0.7,1.8 -1,3.7 -1,5.7 0,2 0.3,3.8 1,5.7 0.7,1.8 1.6,3.4 2.9,4.8 1.3,1.4 2.8,2.5 4.7,3.4 1.8,0.8 3.9,1.3 6.2,1.3 2.3,0 4.4,-0.4 6.2,-1.3 1.8,-0.8 3.4,-2 4.7,-3.4 1.3,-1.4 2.3,-3 2.9,-4.8 0.7,-1.8 1,-3.7 1,-5.7 z"
   id="path323" />
	<path
   class="st1"
   d="m 300.6,75.3 c 0.4,3.8 1.9,6.7 4.4,8.8 2.5,2.1 5.6,3.1 9.1,3.1 3.1,0 5.8,-0.6 7.9,-1.9 2.1,-1.3 4,-2.9 5.6,-4.9 l 9,6.8 c -2.9,3.6 -6.2,6.2 -9.9,7.8 -3.6,1.5 -7.4,2.3 -11.4,2.3 -3.8,0 -7.3,-0.6 -10.7,-1.9 -3.4,-1.3 -6.3,-3 -8.7,-5.3 -2.4,-2.3 -4.4,-5.1 -5.8,-8.3 -1.4,-3.2 -2.1,-6.9 -2.1,-10.8 0,-4 0.7,-7.6 2.1,-10.9 1.4,-3.2 3.4,-6 5.8,-8.3 2.4,-2.3 5.3,-4.1 8.7,-5.3 3.4,-1.3 6.9,-1.9 10.7,-1.9 3.5,0 6.7,0.6 9.6,1.8 2.9,1.2 5.4,3 7.4,5.3 2.1,2.3 3.7,5.2 4.8,8.5 1.2,3.4 1.7,7.3 1.7,11.7 v 3.5 h -38.2 z m 25.8,-9.4 c -0.1,-3.7 -1.2,-6.6 -3.5,-8.8 -2.2,-2.1 -5.3,-3.2 -9.3,-3.2 -3.8,0 -6.8,1.1 -9,3.2 -2.2,2.2 -3.5,5.1 -4,8.7 h 25.8 z"
   id="path325" />
	<path
   class="st1"
   d="m 345.4,45.8 h 12 v 8.1 h 0.2 c 1.2,-2.5 3,-4.7 5.5,-6.6 2.4,-1.9 5.8,-2.8 10,-2.8 3.4,0 6.2,0.6 8.5,1.7 2.3,1.1 4.2,2.6 5.7,4.4 1.5,1.8 2.5,3.9 3.1,6.3 0.6,2.4 0.9,4.9 0.9,7.4 V 96.1 H 378.7 V 70.6 c 0,-1.4 -0.1,-3 -0.2,-4.7 -0.1,-1.7 -0.5,-3.3 -1.1,-4.8 -0.6,-1.5 -1.5,-2.8 -2.8,-3.8 -1.3,-1 -3,-1.5 -5.1,-1.5 -2.1,0 -3.9,0.4 -5.3,1 -1.4,0.7 -2.6,1.6 -3.6,2.8 -0.9,1.2 -1.6,2.6 -2,4.1 -0.4,1.5 -0.6,3.1 -0.6,4.8 V 96 h -12.6 z"
   id="path327" />
	<path
   class="st0"
   d="m 437.9,37.8 c -1.4,-2 -3.3,-3.5 -5.6,-4.5 -2.3,-0.9 -4.8,-1.4 -7.4,-1.4 -1.5,0 -3,0.2 -4.5,0.5 -1.4,0.4 -2.7,0.9 -3.9,1.7 -1.2,0.8 -2.1,1.8 -2.8,3 -0.7,1.2 -1,2.7 -1,4.4 0,2.5 0.9,4.4 2.6,5.8 1.7,1.3 3.9,2.5 6.5,3.5 2.6,1 5.4,1.9 8.5,2.8 3.1,0.9 5.9,2.2 8.5,3.8 2.6,1.6 4.7,3.7 6.5,6.4 1.7,2.7 2.6,6.2 2.6,10.6 0,4 -0.7,7.5 -2.2,10.4 -1.5,3 -3.4,5.4 -5.9,7.4 -2.5,2 -5.4,3.4 -8.6,4.4 -3.3,1 -6.7,1.5 -10.4,1.5 -4.6,0 -9,-0.8 -13.3,-2.3 -4.3,-1.5 -7.9,-4.1 -11,-7.8 l 10,-9.6 c 1.6,2.4 3.7,4.4 6.3,5.7 2.6,1.4 5.4,2 8.3,2 1.5,0 3.1,-0.2 4.6,-0.6 1.5,-0.4 2.9,-1 4.2,-1.9 1.3,-0.8 2.3,-1.9 3,-3.2 0.8,-1.3 1.2,-2.8 1.2,-4.5 0,-2.7 -0.9,-4.8 -2.6,-6.3 -1.7,-1.5 -3.9,-2.7 -6.5,-3.7 -2.6,-1 -5.4,-2 -8.5,-2.9 -3.1,-0.9 -5.9,-2.1 -8.5,-3.7 -2.6,-1.6 -4.8,-3.7 -6.5,-6.3 -1.7,-2.6 -2.6,-6.1 -2.6,-10.5 0,-3.8 0.8,-7.2 2.4,-10 1.6,-2.8 3.6,-5.1 6.2,-7 2.6,-1.9 5.5,-3.2 8.8,-4.1 3.3,-0.9 6.6,-1.4 10.1,-1.4 3.9,0 7.7,0.6 11.4,1.8 3.7,1.2 7,3.1 9.9,5.9 z"
   id="path329" />
	<path
   class="st0"
   d="m 456.4,21.9 h 24.9 c 3.6,0 7,0.4 10.3,1 3.3,0.7 6.2,1.9 8.8,3.5 2.5,1.6 4.5,3.8 6,6.6 1.5,2.8 2.3,6.2 2.3,10.3 0,4.7 -0.8,8.5 -2.4,11.3 -1.6,2.9 -3.8,5.1 -6.5,6.7 -2.7,1.6 -5.9,2.6 -9.5,3.2 -3.6,0.6 -7.4,0.8 -11.3,0.8 h -9.4 V 96 h -13.2 z m 21.2,32.2 c 1.9,0 3.8,-0.1 5.9,-0.2 2,-0.1 3.9,-0.6 5.6,-1.3 1.7,-0.7 3.1,-1.7 4.2,-3.1 1.1,-1.4 1.6,-3.4 1.6,-5.9 0,-2.3 -0.5,-4.1 -1.5,-5.5 -1,-1.4 -2.2,-2.4 -3.8,-3.1 -1.5,-0.7 -3.2,-1.2 -5.1,-1.4 -1.9,-0.2 -3.7,-0.3 -5.5,-0.3 h -9.4 v 20.9 h 8 z"
   id="path331" />
	<path
   class="st0"
   d="m 515.2,21.9 h 24.9 c 3.6,0 7,0.4 10.3,1 3.3,0.7 6.2,1.9 8.8,3.5 2.5,1.6 4.5,3.8 6,6.6 1.5,2.8 2.3,6.2 2.3,10.3 0,4.7 -0.8,8.5 -2.4,11.3 -1.6,2.9 -3.8,5.1 -6.5,6.7 -2.7,1.6 -5.9,2.6 -9.5,3.2 -3.6,0.6 -7.4,0.8 -11.3,0.8 h -9.4 V 96 h -13.2 z m 21.2,32.2 c 1.9,0 3.8,-0.1 5.9,-0.2 2,-0.1 3.9,-0.6 5.6,-1.3 1.7,-0.7 3.1,-1.7 4.2,-3.1 1.1,-1.4 1.6,-3.4 1.6,-5.9 0,-2.3 -0.5,-4.1 -1.5,-5.5 -1,-1.4 -2.2,-2.4 -3.8,-3.1 -1.5,-0.7 -3.2,-1.2 -5.1,-1.4 -1.9,-0.2 -3.7,-0.3 -5.5,-0.3 h -9.4 v 20.9 h 8 z"
   id="path333" />
</g></g>

</svg>
